<svg width="114" height="37" viewBox="0 0 114 37" fill="none" xmlns="http://www.w3.org/2000/svg">
  <path d="M23.9411 22.3233L30.8698 12.1792C31.2719 11.5625 31.2101 10.7608 30.6842 10.2367L21.0335 0.585829C20.4458 -4.44055e-06 19.456 -4.44055e-06 18.8683 0.585829L12.4345 6.99916C11.9087 7.52333 11.8468 8.325 12.2489 8.94166L21.4047 22.3233C22.0234 23.1867 23.3534 23.1867 23.9411 22.3233Z" fill="white"></path>
  <path d="M18.5591 26.2392L9.27955 12.7033C8.75371 11.9017 7.60924 11.8092 6.92874 12.4875L0.680524 18.7158C0.0928203 19.3017 0.0928203 20.2883 0.680524 20.8742L16.2083 36.3525C17.1671 37.3083 18.8065 36.63 18.8065 35.2733V27.0717C18.8065 26.7942 18.7137 26.5167 18.5591 26.2392Z" fill="white"></path>
  <path d="M39.2525 18.7467L34.6746 14.1833C33.9941 13.505 32.8805 13.6283 32.3237 14.3992L24.5599 25.7458C24.3743 25.9925 24.2815 26.3008 24.2815 26.6092V32.1592C24.2815 33.5158 25.9209 34.1942 26.8798 33.2383L39.2525 20.905C39.8402 20.2883 39.8402 19.3325 39.2525 18.7467Z" fill="white"></path>
  <path d="M51.6306 18.7418L46.1688 10.4591C46.1379 10.3987 46.1071 10.3685 46.0762 10.308C46.0454 10.2475 46.0454 10.2173 46.0145 10.1569C45.9836 10.0964 45.9836 10.0662 45.9836 10.0057C45.9836 9.94526 45.9836 9.91503 45.9836 9.85457C45.9836 9.76388 45.9836 9.6732 46.0145 9.58251C46.0454 9.49182 46.0762 9.40114 46.1379 9.31045C46.1996 9.21976 46.2305 9.15931 46.3231 9.06862C46.3848 9.00816 46.4774 8.91748 46.5391 8.88725C46.6317 8.82679 46.7242 8.79656 46.8168 8.7361C46.9094 8.70588 47.002 8.67565 47.0945 8.64542C47.1871 8.61519 47.3105 8.61519 47.4031 8.61519C47.8968 8.61519 48.298 8.82679 48.5757 9.28022L53.2044 16.5956L57.864 9.18954C58.1108 8.76633 58.4811 8.58496 58.944 8.58496C59.0983 8.58496 59.2217 8.61519 59.376 8.67565C59.5303 8.7361 59.6537 8.79656 59.7463 8.88725C59.8697 8.97793 59.9314 9.09885 60.024 9.21976C60.0857 9.34068 60.1166 9.49182 60.1166 9.64297C60.1166 9.85457 60.0549 10.0662 59.9006 10.2778L54.4079 18.6814V24.576C54.4079 24.848 54.3461 25.0899 54.1919 25.3015C54.0376 25.5131 53.8833 25.6642 53.6673 25.7549C53.4513 25.8456 53.2353 25.906 52.9884 25.906C52.6181 25.906 52.2787 25.7851 52.0009 25.5735C51.7232 25.3317 51.5998 25.0294 51.5998 24.6062V18.7418H51.6306Z" fill="white"></path>
  <path d="M68.0162 25.8758C67.3373 25.7247 66.6893 25.4526 66.0721 25.1201C65.4858 24.7876 64.9612 24.3644 64.5292 23.8807C64.0972 23.3971 63.7578 22.7925 63.5109 22.1274C63.2641 21.4322 63.1406 20.6765 63.1406 19.8603V9.85457C63.1406 9.43137 63.2641 9.12908 63.5418 8.88725C63.8195 8.64542 64.1589 8.52451 64.5292 8.52451C64.8995 8.52451 65.239 8.64542 65.5167 8.85702C65.7944 9.09885 65.9487 9.40114 65.9487 9.82434V19.7696C65.9487 20.4649 66.0721 21.0997 66.319 21.6438C66.5659 22.1879 66.8744 22.6111 67.2756 22.9436C67.6767 23.2761 68.1396 23.518 68.6333 23.6691C69.1271 23.8203 69.6517 23.9109 70.2071 23.9109C70.6391 23.9109 71.0711 23.8505 71.4723 23.7598C71.8734 23.6691 72.2746 23.4877 72.6449 23.2761C73.0152 23.0645 73.3237 22.7925 73.6015 22.46C73.8792 22.1577 74.0952 21.7647 74.2495 21.281C74.4038 20.8276 74.4964 20.3137 74.4964 19.7394V9.85457C74.4964 9.43137 74.6506 9.12908 74.9284 8.88725C75.2061 8.64542 75.5455 8.52451 75.9158 8.52451C76.2861 8.52451 76.6256 8.64542 76.9033 8.85702C77.181 9.09885 77.3044 9.40114 77.3044 9.82434V19.8301C77.3044 20.8578 77.1193 21.7647 76.7181 22.5809C76.3478 23.3971 75.8232 24.0621 75.1752 24.5457C74.5272 25.0596 73.7558 25.4224 72.9226 25.6944C72.0894 25.9665 71.1637 26.0874 70.2071 26.0874C69.4356 26.1176 68.7259 26.027 68.0162 25.8758Z" fill="white"></path>
  <path d="M81.1616 24.0923C81.0999 24.0318 81.069 23.9714 81.0382 23.9109C81.0073 23.8505 81.0073 23.7598 81.0073 23.6993C81.0073 23.397 81.1308 23.0947 81.4085 22.7622C81.6862 22.4297 81.9639 22.2786 82.2416 22.2786C82.3034 22.2786 82.3651 22.2786 82.3959 22.3088C82.4576 22.339 82.4885 22.339 82.5502 22.3693C84.0314 23.4273 85.6669 23.9412 87.4566 23.9412C88.6292 23.9412 89.5858 23.7296 90.2956 23.2761C91.0362 22.8227 91.4065 22.1879 91.4065 21.3415C91.4065 20.5858 91.1904 20.0416 90.7893 19.6487C90.3881 19.2557 89.7093 18.9232 88.7527 18.5907L85.0189 17.3815C83.692 16.9583 82.7045 16.384 82.0874 15.7189C81.4702 15.0539 81.1308 14.1168 81.1308 12.9379C81.1308 11.9706 81.4085 11.1242 81.9948 10.3987C82.5502 9.67318 83.3217 9.12906 84.3091 8.76632C85.2657 8.40357 86.3766 8.2222 87.5801 8.2222C88.7527 8.2222 89.8636 8.40357 90.9436 8.76632C92.0236 9.12906 92.8568 9.55226 93.4122 10.0359C93.6282 10.2173 93.7208 10.4289 93.7208 10.701C93.7208 10.973 93.6282 11.2451 93.4122 11.4567C93.1962 11.6985 92.9494 11.7892 92.6716 11.7892C92.4865 11.7892 92.3013 11.7287 92.1162 11.6078C90.7276 10.7916 89.2773 10.3684 87.7961 10.3684C86.5926 10.3684 85.6669 10.58 84.9263 10.973C84.2166 11.366 83.8463 11.9706 83.8463 12.817C83.8463 13.3913 84.0005 13.875 84.34 14.2377C84.6794 14.6005 85.204 14.8725 85.9137 15.1144L89.6476 16.2933C90.3881 16.5351 91.0362 16.7769 91.5299 17.049C92.0545 17.3211 92.5173 17.6233 92.9185 17.9861C93.3196 18.3488 93.6282 18.8023 93.8442 19.3162C94.0602 19.83 94.1528 20.4044 94.1528 21.0694C94.1528 22.1274 93.8751 23.0343 93.3196 23.79C92.7642 24.5457 91.9619 25.1201 90.9744 25.513C89.9561 25.906 88.7835 26.0874 87.4258 26.0874C84.8029 26.1176 82.7354 25.4526 81.1616 24.0923Z" fill="white"></path>
  <path fill-rule="evenodd" clip-rule="evenodd" d="M97.8559 21.8856C98.5039 23.2157 99.4913 24.2737 100.757 24.9992C102.022 25.7549 103.534 26.1176 105.293 26.1176C107.916 26.1176 109.983 25.3014 111.464 23.6993C112.945 22.067 113.686 19.8905 113.686 17.1699C113.686 14.4191 112.945 12.2426 111.464 10.6405C109.983 9.03837 107.916 8.2222 105.293 8.2222C103.534 8.2222 102.022 8.61517 100.757 9.34066C99.4913 10.0662 98.5347 11.1242 97.8559 12.4542C97.2078 13.7843 96.8684 15.3562 96.8684 17.1699C96.8684 18.9836 97.177 20.5555 97.8559 21.8856ZM110.754 17.1699C110.754 19.2557 110.292 20.9183 109.335 22.1274C108.409 23.3366 107.052 23.9412 105.262 23.9412C103.503 23.9412 102.176 23.3366 101.219 22.1274C100.263 20.9183 99.7999 19.2557 99.7999 17.1699C99.7999 15.1144 100.263 13.4518 101.219 12.2426C102.176 11.0335 103.534 10.4289 105.293 10.4289C107.052 10.4289 108.378 11.0335 109.335 12.2426C110.292 13.4518 110.754 15.0841 110.754 17.1699Z" fill="white"></path>
</svg>